<svg width="42" height="42" viewBox="0 0 42 42" fill="none" xmlns="http://www.w3.org/2000/svg">
<path d="M20.7714 40.9954C31.817 40.9954 40.7714 32.0411 40.7714 20.9954C40.7714 9.94974 31.817 0.995422 20.7714 0.995422C9.72567 0.995422 0.771362 9.94974 0.771362 20.9954C0.771362 32.0411 9.72567 40.9954 20.7714 40.9954Z" fill="#FFE908" stroke="black" stroke-width="1.19" stroke-miterlimit="22.9256"/>
<path fill-rule="evenodd" clip-rule="evenodd" d="M20.4244 4.78711C23.6287 4.78711 26.2455 7.67094 26.2455 11.1956C26.2455 11.5161 26.2188 11.8365 26.1654 12.1569C26.0853 12.7711 27.1534 12.6376 25.7115 13.8659C24.8036 16.0822 22.7742 17.6042 20.4244 17.6042C18.0212 17.6042 15.9652 16.0288 15.084 13.7324C14.817 13.5454 14.6835 13.225 14.4164 12.7978C14.3363 12.3706 14.6301 11.6496 14.6301 11.1956C14.6301 7.67094 17.2202 4.78711 20.4244 4.78711V4.78711Z" fill="black"/>
<path d="M8.1681 14.5068H5.89844V16.7765H8.1681V14.5068Z" fill="black"/>
<path d="M8.1681 16.9901H5.89844V19.2598H8.1681V16.9901Z" fill="black"/>
<path d="M8.1681 19.4734H5.89844V21.7431H8.1681V19.4734Z" fill="black"/>
<path d="M10.6515 19.4734H8.38184V21.7431H10.6515V19.4734Z" fill="black"/>
<path d="M13.1345 19.4734H10.8649V21.7431H13.1345V19.4734Z" fill="black"/>
<path d="M8.1681 21.9567H5.89844V24.2264H8.1681V21.9567Z" fill="black"/>
<path d="M8.1681 24.44H5.89844V26.7097H8.1681V24.44Z" fill="black"/>
<path d="M10.6515 14.5068H8.38184V16.7765H10.6515V14.5068Z" fill="black"/>
<path d="M13.1345 14.5068H10.8649V16.7765H13.1345V14.5068Z" fill="black"/>
<path d="M13.1345 16.9901H10.8649V19.2598H13.1345V16.9901Z" fill="black"/>
<path d="M30.3307 14.5068H28.061V16.7765H30.3307V14.5068Z" fill="black"/>
<path d="M32.8142 14.5068H30.5446V16.7765H32.8142V14.5068Z" fill="black"/>
<path d="M35.2978 14.5068H33.0281V16.7765H35.2978V14.5068Z" fill="black"/>
<path d="M30.3307 16.9901H28.061V19.2598H30.3307V16.9901Z" fill="black"/>
<path d="M30.3307 19.4734H28.061V21.7431H30.3307V19.4734Z" fill="black"/>
<path d="M32.8142 19.4734H30.5446V21.7431H32.8142V19.4734Z" fill="black"/>
<path d="M30.3307 21.9567H28.061V24.2264H30.3307V21.9567Z" fill="black"/>
<path d="M30.3307 24.44H28.061V26.7097H30.3307V24.44Z" fill="black"/>
<path d="M32.8142 24.44H30.5446V26.7097H32.8142V24.44Z" fill="black"/>
<path d="M35.2978 24.44H33.0281V26.7097H35.2978V24.44Z" fill="black"/>
<path fill-rule="evenodd" clip-rule="evenodd" d="M11.6929 8.92594C12.0133 8.65892 13.562 8.15157 15.1909 8.63222C16.793 9.11286 16.4993 10.6616 15.4579 11.3559C15.2175 11.5161 14.283 11.8632 14.1228 11.4093C13.8023 10.5014 11.4259 9.6202 11.6929 8.92594V8.92594Z" fill="#DEC400"/>
<path fill-rule="evenodd" clip-rule="evenodd" d="M13.749 8.41858C14.3632 8.47198 14.6836 8.47199 15.191 8.6322C16.7931 9.11284 16.4994 10.6616 15.458 11.3558C15.2176 11.5161 13.8825 11.8098 14.1229 11.4092C14.4433 10.9286 14.9773 9.75369 13.749 8.41858V8.41858Z" fill="#706419"/>
<path fill-rule="evenodd" clip-rule="evenodd" d="M12.8944 8.68561C13.375 8.76572 14.6033 9.7003 14.2562 10.4747C14.096 10.7951 14.0426 10.9286 13.5619 11.1155C10.9184 12.1569 10.4912 8.17827 12.8944 8.68561Z" fill="#706419"/>
<path fill-rule="evenodd" clip-rule="evenodd" d="M11.6929 8.92594C12.0133 8.65892 13.562 8.15157 15.1909 8.63222C16.793 9.11286 16.4993 10.6616 15.4579 11.3559C15.2175 11.5161 14.283 11.8632 14.1228 11.4093C13.8023 10.5014 11.4259 9.6202 11.6929 8.92594V8.92594Z" fill="url(#paint0_linear_78_932)"/>
<path fill-rule="evenodd" clip-rule="evenodd" d="M28.3282 8.97941C28.0077 8.71239 26.4323 8.20504 24.8302 8.68568C23.2281 9.16632 23.5218 10.715 24.5631 11.4093C24.8035 11.5695 25.738 11.9167 25.8983 11.4627C26.192 10.5548 28.5952 9.67367 28.3282 8.97941V8.97941Z" fill="#DEC400"/>
<path fill-rule="evenodd" clip-rule="evenodd" d="M26.2721 8.47205C25.6579 8.52545 25.3375 8.52546 24.8302 8.68567C23.2281 9.16631 23.5218 10.715 24.5631 11.4093C24.8035 11.5695 26.1386 11.8632 25.8983 11.4627C25.5778 10.9821 25.0438 9.80716 26.2721 8.47205V8.47205Z" fill="#706419"/>
<path fill-rule="evenodd" clip-rule="evenodd" d="M27.1266 8.73914C26.6192 8.81925 25.4176 9.75382 25.7647 10.5282C25.9249 10.8486 25.9784 10.9821 26.459 11.1691C29.0758 12.2104 29.5298 8.2318 27.1266 8.73914Z" fill="#706419"/>
<path fill-rule="evenodd" clip-rule="evenodd" d="M9.87698 12.077C10.2241 11.1157 10.3843 9.56694 11.9865 9.56694C13.2148 9.56694 13.3216 9.27322 13.8556 10.1544C14.8703 11.8099 15.8049 10.9555 15.8049 11.0089C15.8316 11.623 16.8196 11.8366 16.873 12.1037C17.14 13.4121 18.9825 14.1597 20.0238 14.8273C20.8249 15.3079 21.7061 15.4148 22.2668 14.6137C22.8276 13.8393 24.1894 12.5576 24.1894 11.6497C24.1894 11.0623 24.9103 10.822 25.3109 10.4748C25.658 10.1544 25.7114 11.5963 26.5392 10.5015C27.0999 9.78058 27.3937 9.35333 28.5686 9.38003C29.1026 9.40673 29.7702 9.91408 30.1173 10.368C30.411 10.7953 30.6514 11.6764 30.6781 12.2105C30.7582 12.2639 31.3723 12.5042 31.7461 13.3587C31.933 13.7592 30.3576 13.9194 30.144 13.8393C29.9571 13.7592 28.8089 13.1985 28.8089 13.1985C28.0879 13.1985 28.0078 14.2933 27.4737 13.6257C27.2868 13.3854 26.4591 13.332 26.1654 13.6257C25.4978 14.2933 22.0532 15.7085 21.0385 16.1357C20.5045 16.376 18.395 17.2839 17.8342 16.7766C16.3122 15.4148 16.2321 15.9221 15.0839 13.9194C14.7368 13.332 13.4017 13.3053 13.1881 13.8393C13.0279 14.2666 12.4938 13.7859 11.7194 13.3854C11.0519 13.0382 10.6246 13.0382 10.1173 13.8126C9.87697 14.1864 9.23612 13.3854 9.28952 13.1718C9.31623 12.7445 9.71676 12.5309 9.87698 12.077V12.077Z" fill="black"/>
<path fill-rule="evenodd" clip-rule="evenodd" d="M16.0184 9.5134C15.8048 8.92595 14.6566 8.25839 14.8702 9.03275C15.0038 9.37988 15.1906 9.45998 15.1639 10.2343C15.1639 10.6616 15.5111 11.8365 16.2855 11.97C16.2855 11.97 16.3388 12.8779 16.4723 13.1449C16.6326 13.5187 19.5431 16.0555 20.4243 16.1089C21.4657 16.189 23.1212 14.213 24.216 13.1716C24.483 12.9046 24.3228 11.9967 24.3762 11.8365C24.5097 11.5161 25.3108 10.982 25.2841 10.6082C25.2841 10.4747 25.3642 10.0741 25.5511 9.70031C25.7381 9.40659 25.9516 9.11286 25.8982 8.95265C25.7647 8.49871 24.7768 9.24638 24.5364 9.24638C22.8008 9.24638 19.4363 6.84317 17.7007 7.11019C17.1132 7.1903 16.7394 8.41861 16.3922 9.16627C16.3655 9.19298 16.0184 9.48669 16.0184 9.5134V9.5134Z" fill="#FFE908"/>
<path fill-rule="evenodd" clip-rule="evenodd" d="M15.4577 10.5547C15.3509 10.2343 15.3776 9.67356 15.1639 9.35313C14.977 9.08611 14.7634 8.65886 14.8703 9.03269C15.0038 9.37982 15.1906 9.45992 15.1639 10.2343C15.1639 10.6615 15.5111 11.8364 16.2855 11.9699C16.2855 11.9699 16.3389 12.8778 16.4724 13.1448C16.6326 13.5187 19.5431 16.0554 20.4243 16.1088C21.4657 16.1889 23.1213 14.2129 24.216 13.1716C24.4831 12.9045 24.3228 11.9967 24.3763 11.8364C24.5098 11.516 25.3108 10.982 25.2841 10.6081C25.2841 10.4746 25.3642 10.0741 25.5512 9.70025C25.7381 9.40653 26.0051 9.1128 25.8983 8.95259C25.8983 8.92589 25.8716 9.08611 25.8182 9.16621C25.6312 9.40653 25.3375 9.80706 25.204 10.1008C25.1239 10.261 25.1239 10.528 24.9637 10.9018C24.8569 11.2223 24.4296 11.3024 24.3495 11.8364C24.3228 12.0768 24.2427 12.5841 24.0825 12.9045C23.2815 14.2396 21.0118 15.6282 20.5845 15.6014C19.8102 15.5747 17.8876 13.6522 17.2734 13.1716C16.3122 12.3705 16.6326 12.237 16.4724 11.6762C16.4724 11.6495 15.8849 11.4092 15.698 11.0621C15.5912 10.8752 15.5645 10.7683 15.4577 10.5547V10.5547Z" fill="#DEC400"/>
<path fill-rule="evenodd" clip-rule="evenodd" d="M16.0183 9.5134C15.9115 9.21967 15.7245 9.16626 15.7245 9.11286C15.6978 9.32648 15.6978 9.4867 15.8581 10.1276C15.8581 10.181 16.2319 10.448 16.3654 10.6082C16.5256 10.7417 16.312 8.95266 17.4335 8.12489C17.9141 7.77776 18.4215 7.83116 19.6498 7.91126C21.8661 8.04478 22.5069 9.00606 24.563 10.982C24.8033 11.2223 24.7766 10.1276 24.9635 9.80712C25.0436 9.64691 25.2306 9.67361 25.4175 9.29977C25.5777 9.00605 25.4709 9.11286 25.4175 8.95265C25.284 8.47201 24.7766 9.24638 24.5363 9.24638C22.8006 9.24638 19.4362 6.84317 17.7005 7.11019C17.1131 7.1903 16.7392 8.41861 16.3921 9.16627C16.3654 9.19298 16.0183 9.48669 16.0183 9.5134Z" fill="#DEC400"/>
<path fill-rule="evenodd" clip-rule="evenodd" d="M17.6741 10.6349C17.3002 10.5815 17.0332 11.1156 17.1667 11.2491C17.407 11.4627 18.6888 11.8632 19.4364 12.0234C19.4631 12.0234 17.6207 12.8245 17.9144 12.8245C19.4097 12.9046 21.1454 12.9313 22.6407 12.8779C22.2936 12.5575 22.0265 12.1302 22.1066 11.97C22.2402 11.6763 23.6554 11.5695 23.6287 11.1956C23.602 10.7684 23.5486 10.8218 23.5486 10.6616C21.8931 10.9286 22.5072 11.0354 20.638 11.0622C18.395 11.0889 18.3416 10.7951 17.6741 10.6349Z" fill="#DEC400"/>
<path fill-rule="evenodd" clip-rule="evenodd" d="M15.9918 10.1009C15.9918 9.43333 16.1787 6.81651 16.2321 6.01544C16.3389 6.12225 16.873 6.28246 16.8463 6.28246C16.8463 6.25576 16.8997 5.48139 16.9264 5.32118C16.9531 5.40128 17.0599 5.45469 17.2468 5.80182C17.3536 5.24107 17.5405 4.78712 17.5939 4.70702C17.7007 4.92063 17.7008 4.97405 17.861 5.24107C17.9144 5.32118 18.9023 4.11957 19.4631 3.58553C19.4097 3.90595 19.3029 4.78713 19.3029 5.10755C19.5165 4.86723 19.65 4.54681 19.9704 4.17298C19.9971 4.3866 19.9438 4.97404 20.0773 4.89393C20.2108 4.81382 21.4925 3.55884 21.5726 3.45203C21.5459 3.53213 21.4657 4.5201 21.4657 4.62691C21.7328 4.4934 23.148 4.11958 23.4684 4.09287C23.2281 4.25309 22.9344 4.68033 23.4951 4.3866C23.7889 4.25309 23.7355 4.27979 23.8957 4.19969C23.7889 4.3599 22.881 5.18767 24.2161 4.60022C24.136 4.73374 23.7888 5.21437 24.7234 5.16097C24.9904 5.16097 25.391 5.18766 25.4711 5.18766C25.4444 5.21436 24.8035 5.77511 25.3109 5.88192C25.4711 5.90862 25.5512 5.93533 25.7915 5.98873C25.3376 6.17565 25.2308 6.25576 25.2575 6.28246C25.3376 6.30916 26.0319 6.49607 26.1654 6.54948C25.8716 6.60288 25.7648 6.57617 25.1774 6.70969C25.1507 6.70969 25.4177 6.86991 25.6847 7.05683C25.6313 7.03013 25.1774 7.08352 25.0172 7.19033C24.8836 7.29714 25.4978 7.99141 25.658 8.20503C24.9371 7.96471 25.2842 8.33853 25.658 9.1396C24.8303 8.47204 25.4177 9.24642 25.4711 9.35322C25.3109 9.27312 24.5098 8.89927 24.9905 9.56683C24.857 9.51342 24.6701 9.46002 24.5899 9.56683C24.4831 9.64693 24.8036 10.0475 24.8837 10.1543C24.3496 9.91396 24.6968 10.4213 24.8837 10.6883C24.5365 10.5281 24.2695 10.3412 23.7621 10.0742C23.7888 10.6349 23.8155 11.3559 23.8422 11.9166C23.5752 11.3025 22.7742 9.24641 22.614 8.92598C22.5339 9.1396 22.4003 9.96738 22.2668 10.3145C22.0265 10.0208 20.9317 8.73907 20.371 8.17832C20.7715 8.95268 21.4925 10.0742 21.5726 10.2878C21.1988 10.0208 18.6353 7.9914 18.5552 7.9914L17.1133 8.41863L16.3657 10.6082L15.9918 10.1009V10.1009Z" fill="black" stroke="black" stroke-width="0.04" stroke-miterlimit="22.9256"/>
<path d="M15.8315 11.3567C16.0085 11.3567 16.152 11.213 16.152 11.0358C16.152 10.8586 16.0085 10.7149 15.8315 10.7149C15.6546 10.7149 15.5111 10.8586 15.5111 11.0358C15.5111 11.213 15.6546 11.3567 15.8315 11.3567Z" fill="black" stroke="black" stroke-width="0.04" stroke-miterlimit="22.9256"/>
<path d="M24.6701 11.2232C24.847 11.2232 24.9905 11.0795 24.9905 10.9023C24.9905 10.7251 24.847 10.5814 24.6701 10.5814C24.4931 10.5814 24.3496 10.7251 24.3496 10.9023C24.3496 11.0795 24.4931 11.2232 24.6701 11.2232Z" fill="black" stroke="black" stroke-width="0.04" stroke-miterlimit="22.9256"/>
<path fill-rule="evenodd" clip-rule="evenodd" d="M17.1399 11.1155C17.2467 11.1689 18.9823 11.7564 19.4363 12.0234C19.4363 12.0501 19.3829 12.0768 19.3562 12.1302C19.2761 12.0768 19.2761 12.0501 19.2227 12.0768C19.1693 12.1035 19.1159 12.1836 19.1159 12.237C19.0892 12.8512 18.0211 12.691 18.1279 11.97C18.1813 11.6229 18.3148 11.7831 17.6739 11.5161C17.487 11.436 17.2467 11.3826 17.1666 11.3559C17.1666 11.3559 17.1666 11.3025 17.1399 11.1155V11.1155Z" fill="black" stroke="black" stroke-width="0.04" stroke-miterlimit="22.9256"/>
<path fill-rule="evenodd" clip-rule="evenodd" d="M19.543 11.7563C19.089 11.4893 17.8073 10.9019 17.567 10.6882C17.4869 10.6348 17.5403 10.5814 17.5937 10.5814C17.7806 10.5814 19.0356 11.1956 19.4361 11.516C19.4895 11.5694 19.5163 11.6495 19.543 11.7563V11.7563Z" fill="black" stroke="black" stroke-width="0.04" stroke-miterlimit="22.9256"/>
<path fill-rule="evenodd" clip-rule="evenodd" d="M19.5165 14.1061C20.8783 14.6402 21.7328 13.7857 21.9998 13.5721C21.3323 14.9339 19.7835 15.0941 19.5165 14.1061Z" fill="black" stroke="black" stroke-width="0.04" stroke-miterlimit="22.9256"/>
<path fill-rule="evenodd" clip-rule="evenodd" d="M23.6288 11.1957C23.522 11.2224 21.7863 11.8099 21.3324 12.0769C21.3324 12.1036 21.3858 12.157 21.4392 12.1837C21.4926 12.157 21.5193 12.1303 21.5727 12.157C21.5994 12.1837 21.6528 12.2638 21.6795 12.2905C21.6795 12.9047 22.7476 12.7712 22.6408 12.0502C22.5874 11.7031 22.4539 11.8366 23.1214 11.5963C23.2817 11.5162 23.5487 11.4628 23.6021 11.4361C23.6021 11.4361 23.6288 11.3827 23.6288 11.1957V11.1957Z" fill="black" stroke="black" stroke-width="0.04" stroke-miterlimit="22.9256"/>
<path fill-rule="evenodd" clip-rule="evenodd" d="M21.2255 11.8365C21.6794 11.5428 22.9611 10.9554 23.2281 10.7417C23.2815 10.715 23.2281 10.6616 23.2014 10.6616C22.9878 10.6349 21.7328 11.2758 21.3323 11.5695C21.2789 11.6496 21.2522 11.7297 21.2255 11.8365V11.8365Z" fill="black" stroke="black" stroke-width="0.04" stroke-miterlimit="22.9256"/>
<path fill-rule="evenodd" clip-rule="evenodd" d="M10.144 11.2491C10.3577 10.0742 11.1053 9.27313 12.3336 9.19302C13.6687 9.08621 14.4965 10.7685 14.8704 11.8099C14.4431 11.1957 13.6687 9.96739 13.0012 9.70037C11.6661 9.13962 10.7048 10.1543 10.144 11.2491Z" fill="#FEFEFE"/>
<path fill-rule="evenodd" clip-rule="evenodd" d="M30.5178 11.2491C30.3042 10.0742 29.5565 9.24644 28.3282 9.16633C26.9931 9.08623 26.1653 10.7685 25.7915 11.7831C26.2187 11.1957 26.9931 9.96739 27.6607 9.67366C28.9958 9.11292 29.957 10.1543 30.5178 11.2491Z" fill="#FEFEFE"/>
<path fill-rule="evenodd" clip-rule="evenodd" d="M15.5644 13.332C14.9503 13.5189 15.1639 14.4535 15.8582 14.7472C16.7393 15.0944 17.3535 14.6938 17.3268 14.32C17.3001 14.053 16.8729 13.8928 16.6058 13.7326C16.1519 13.4655 15.965 13.1985 15.5644 13.332V13.332Z" fill="#DEC400"/>
<path fill-rule="evenodd" clip-rule="evenodd" d="M10.1437 14.0798C10.0903 14.0531 9.93004 13.7593 10.117 13.4389C10.3039 13.1452 10.4641 12.5844 10.7845 12.4509C11.1583 12.264 11.8793 12.3708 11.9327 12.8515C11.9594 13.0651 11.8793 13.2787 11.7458 13.4923C11.5856 13.786 11.3987 14.1332 11.0782 14.2667C10.7578 14.4002 10.8646 14.24 10.5175 14.24C10.4641 14.24 10.2238 14.1332 10.1437 14.0798V14.0798Z" fill="#FFE908"/>
<path fill-rule="evenodd" clip-rule="evenodd" d="M11.6126 12.4775C11.7461 12.4508 11.933 12.6911 11.933 12.8513C11.9597 13.065 11.8796 13.2786 11.746 13.4922C11.5858 13.7859 11.3989 14.133 11.0785 14.2666C10.7581 14.4001 10.8115 14.4268 10.5178 14.2399C9.74339 13.7592 11.1052 12.6377 11.6126 12.4775Z" fill="#DEC400"/>
<path fill-rule="evenodd" clip-rule="evenodd" d="M8.43517 13.866C8.35506 13.7058 8.59538 13.5456 8.7289 13.4121C8.809 13.332 9.18284 13.1184 9.31635 13.0649C9.47656 13.0115 9.82369 13.0649 9.9038 13.2252C10.0373 13.4388 9.93048 13.7859 9.71687 13.9728C9.39644 14.2398 8.91582 14.6938 8.56869 14.1597C8.51528 14.0796 8.43517 13.8126 8.43517 13.866Z" fill="#FFE908"/>
<path fill-rule="evenodd" clip-rule="evenodd" d="M14.0691 13.6791C13.989 13.6791 13.4549 12.7446 14.2293 12.3173C14.4963 12.1838 15.1105 12.2639 15.244 12.5577C15.3241 12.7179 15.4576 13.332 15.3241 13.4388C15.1639 13.5723 15.244 13.5456 14.9503 13.6791C14.7099 13.786 14.2827 13.8394 14.0691 13.6791Z" fill="#FFE908"/>
<path fill-rule="evenodd" clip-rule="evenodd" d="M14.8166 12.9848C14.7365 12.9047 13.8821 12.5309 14.2292 12.3173C14.4962 12.1571 15.1104 12.2639 15.2439 12.5576C15.324 12.7178 15.4575 13.332 15.324 13.4388C15.1638 13.5723 15.2439 13.5456 14.9502 13.6791C14.7098 13.7859 15.0036 13.1451 14.8166 12.9848Z" fill="#DEC400"/>
<path fill-rule="evenodd" clip-rule="evenodd" d="M11.7995 14.2131C11.6393 14.0529 11.6126 13.7058 11.6927 13.5188C11.9063 12.9314 12.0131 12.5576 12.7073 12.5576C12.9744 12.5576 13.2147 12.6644 13.3482 12.878C13.4283 13.0115 13.4283 13.2785 13.3749 13.412C13.3215 13.5455 13.2681 13.6791 13.188 13.8393C13.1079 13.9995 13.0812 14.133 12.8943 14.1864C12.467 14.3199 12.2534 14.1063 11.7995 14.2131Z" fill="#FFE908"/>
<path fill-rule="evenodd" clip-rule="evenodd" d="M11.7993 14.2131C11.6391 14.0529 12.7072 13.7859 12.7873 13.5989C13.0009 13.0382 12.0129 12.5576 12.7072 12.5576C12.9742 12.5576 13.2145 12.6644 13.348 12.878C13.4282 13.0115 13.4281 13.2785 13.3747 13.412C13.3213 13.5455 13.2679 13.6791 13.1878 13.8393C13.1077 13.9995 13.081 14.133 12.8941 14.1864C12.4669 14.3199 12.2532 14.1063 11.7993 14.2131Z" fill="#DEC400"/>
<path fill-rule="evenodd" clip-rule="evenodd" d="M9.84993 13.1717C10.0903 13.2518 9.95673 13.7591 9.71641 13.9727C9.36929 14.2398 8.83526 14.7471 8.56824 14.1597C8.56824 14.133 9.396 12.9848 9.84993 13.1717V13.1717Z" fill="#DEC400"/>
<path d="M14.7645 13.9596C15.1115 13.9032 15.36 13.6562 15.3197 13.4079C15.2793 13.1596 14.9653 13.0041 14.6183 13.0605C14.2713 13.117 14.0227 13.364 14.0631 13.6123C14.1035 13.8605 14.4175 14.0161 14.7645 13.9596Z" fill="#FFF9C9" stroke="#FFF9C9" stroke-width="0.000279957" stroke-miterlimit="22.9256"/>
<path fill-rule="evenodd" clip-rule="evenodd" d="M12.3332 13.4921C12.707 13.4654 13.0008 13.7057 13.0275 14.0261C13.0275 14.3199 12.7338 14.5869 12.3599 14.5869C11.9861 14.6136 11.6924 14.3733 11.6656 14.0795C11.6656 13.7591 11.9594 13.4921 12.3332 13.4921Z" fill="#FFF9C9"/>
<path d="M13.0542 14.0262H12.9741V13.9995L12.9474 13.9728V13.9461V13.9194V13.8927L12.9207 13.866V13.8393L12.894 13.8126V13.7859L12.8673 13.7592V13.7325H12.8406L12.8139 13.7058L12.7872 13.6791H12.7605V13.6524H12.7338L12.7071 13.6257H12.6804L12.6537 13.599H12.627L12.6003 13.5723H12.5736H12.5469L12.5202 13.5456H12.4934H12.4668H12.4133H12.3867H12.36H12.3332V13.4388H12.36H12.4133H12.4401H12.4668H12.4934L12.5469 13.4655H12.5736H12.6003L12.627 13.4922H12.6804L12.7071 13.5189H12.7338L12.7605 13.5456H12.7872L12.8139 13.5723L12.8406 13.599L12.8673 13.6257H12.894L12.9207 13.6524V13.6791L12.9474 13.7058L12.9741 13.7325V13.7592L13.0008 13.7859V13.8126L13.0275 13.8393V13.866L13.0542 13.8927V13.9194V13.9461V13.9728V14.0262V14.0262ZM12.36 14.6404V14.5603L12.3867 14.5336H12.4133H12.4668H12.4934H12.5202H12.5469L12.5736 14.5069H12.6003L12.627 14.4802H12.6537L12.6804 14.4535H12.7071L12.7338 14.4268H12.7605V14.4001L12.7872 14.3734H12.8139L12.8406 14.3466V14.32H12.8673L12.894 14.2933V14.2665L12.9207 14.2398V14.2131V14.1864L12.9474 14.1597V14.133V14.1063L12.9741 14.0796V14.0529V14.0262H13.0542V14.0529V14.0796V14.1063V14.133V14.1597L13.0275 14.2131V14.2398V14.2665L13.0008 14.2933L12.9741 14.32V14.3466L12.9474 14.3734L12.9207 14.4001V14.4268H12.894L12.8673 14.4535L12.8406 14.4802L12.8139 14.5069H12.7872L12.7605 14.5336L12.7338 14.5603H12.7071L12.6804 14.587H12.627L12.6003 14.6137H12.5736L12.5469 14.6404H12.4934H12.4668H12.4401H12.3867H12.36V14.6404ZM11.6123 14.0796H11.7191V14.1063V14.133L11.7458 14.1597V14.1864V14.2131L11.7725 14.2398V14.2665L11.7992 14.2933L11.8259 14.32V14.3466L11.8526 14.3734H11.8793L11.906 14.4001V14.4268H11.9327L11.9594 14.4535H11.9861L12.0128 14.4802H12.0395L12.0662 14.5069H12.0929H12.1196L12.1463 14.5336H12.173H12.1998H12.2264H12.2531L12.3065 14.5603H12.3332H12.36V14.6404H12.3332H12.2799H12.2531H12.2264H12.173H12.1463L12.1196 14.6137H12.0929H12.0395L12.0128 14.587H11.9861L11.9594 14.5603L11.9327 14.5336H11.906L11.8793 14.5069L11.8526 14.4802H11.8259L11.7992 14.4535L11.7725 14.4268L11.7458 14.4001V14.3734L11.7191 14.3466L11.6924 14.32V14.2933L11.6657 14.2665V14.2398L11.639 14.2131V14.1864V14.1597V14.133L11.6123 14.1063V14.0796V14.0796ZM12.3332 13.4388V13.5456H12.3065H12.2531H12.2264H12.1998L12.173 13.5723H12.1463H12.1196L12.0929 13.599H12.0662L12.0395 13.6257H12.0128H11.9861L11.9594 13.6524L11.9327 13.6791H11.906L11.8793 13.7058V13.7325H11.8526L11.8259 13.7592V13.7859L11.7992 13.8126V13.8393H11.7725V13.866L11.7458 13.8927V13.9194V13.9461V13.9728L11.7191 13.9995V14.0262V14.0529V14.0796H11.6123V14.0262V13.9995L11.639 13.9728V13.9461V13.9194V13.8927L11.6657 13.866V13.8393L11.6924 13.7859L11.7191 13.7592V13.7325H11.7458L11.7725 13.7058V13.6791L11.7992 13.6524L11.8259 13.6257L11.8526 13.599H11.8793L11.906 13.5723L11.9327 13.5456H11.9594L11.9861 13.5189H12.0128L12.0395 13.4922H12.0662L12.1196 13.4655H12.1463L12.173 13.4388H12.2264H12.2531H12.2799H12.3332V13.4388Z" fill="#FFF9C9"/>
<path fill-rule="evenodd" clip-rule="evenodd" d="M10.678 13.412C10.9984 13.3853 11.2654 13.5989 11.2654 13.8659C11.2654 14.1329 11.0251 14.3733 10.7046 14.3733C10.3842 14.3733 10.1172 14.1864 10.1172 13.9193C10.1172 13.6523 10.3575 13.412 10.678 13.412Z" fill="#FFF9C9"/>
<path d="M11.3189 13.866H11.212V13.8393V13.8126L11.1853 13.7859V13.7592V13.7325L11.1586 13.7058V13.6791H11.1319V13.6524L11.1052 13.6257L11.0785 13.599L11.0518 13.5722H11.0251V13.5456H10.9984L10.9717 13.5188H10.945L10.9183 13.4921H10.8916H10.8649L10.8382 13.4655H10.8115H10.7848H10.7581H10.7314H10.7047H10.678V13.3586H10.7047H10.7314H10.7581H10.8115H10.8382L10.8649 13.3853H10.8916H10.9183H10.945L10.9717 13.412H10.9984L11.0251 13.4387H11.0518L11.0785 13.4655H11.1052V13.4921L11.1319 13.5188H11.1586L11.1853 13.5456V13.5722L11.212 13.599V13.6257H11.2387L11.2654 13.6524V13.6791V13.7058L11.2921 13.7325V13.7592V13.7859L11.3189 13.8126V13.8393V13.866V13.866ZM10.7047 14.4267V14.3199H10.7314H10.7581H10.7848H10.8115L10.8382 14.2932H10.8649H10.8916V14.2665H10.9183H10.945L10.9717 14.2398H10.9984L11.0251 14.2131L11.0518 14.1864H11.0785V14.1597L11.1052 14.133L11.1319 14.1063L11.1586 14.0796V14.0529L11.1853 14.0262V13.9995V13.9728L11.212 13.9461V13.9194V13.8927V13.866H11.3189V13.8927V13.9194V13.9461L11.2921 13.9728V13.9995V14.0262L11.2654 14.0529V14.0796V14.1063L11.2387 14.133L11.212 14.1597L11.1853 14.1864V14.2131L11.1586 14.2398H11.1319L11.1052 14.2665L11.0785 14.2932V14.3199H11.0518L11.0251 14.3466H10.9984L10.9717 14.3733H10.945H10.9183L10.8916 14.4H10.8649H10.8115H10.7848L10.7581 14.4267H10.7314H10.7047V14.4267ZM10.0638 13.9194H10.1706V13.9461V13.9728V13.9995V14.0262H10.1974V14.0529V14.0796H10.224V14.1063L10.2507 14.133L10.2775 14.1597V14.1864H10.3042L10.3308 14.2131L10.3576 14.2398H10.3843H10.4109V14.2665H10.4377L10.4644 14.2932H10.491H10.5178H10.5445L10.5712 14.3199H10.5979H10.6246H10.6513H10.678H10.7047V14.4267H10.678H10.6246H10.5979H10.5712L10.5445 14.4H10.5178H10.491H10.4644L10.4377 14.3733H10.4109L10.3843 14.3466H10.3576L10.3308 14.3199H10.3042L10.2775 14.2932H10.2507V14.2665L10.224 14.2398H10.1974L10.1706 14.2131V14.1864L10.1439 14.1597L10.1172 14.133V14.1063L10.0905 14.0796V14.0529L10.0638 14.0262V13.9995V13.9728V13.9461V13.9194V13.9194ZM10.678 13.3586V13.4655H10.6513H10.6246H10.5979H10.5712H10.5445L10.5178 13.4921H10.491H10.4644L10.4377 13.5188H10.4109L10.3843 13.5456L10.3576 13.5722H10.3308L10.3042 13.599L10.2775 13.6257L10.2507 13.6524L10.224 13.6791V13.7058L10.1974 13.7325V13.7592L10.1706 13.7859V13.8126V13.8393V13.866V13.8927V13.9194H10.0638V13.8927V13.866V13.8393V13.8126V13.7859L10.0905 13.7592V13.7325L10.1172 13.7058V13.6791L10.1439 13.6524V13.6257L10.1706 13.599V13.5722H10.1974L10.224 13.5456V13.5188H10.2507L10.2775 13.4921L10.3042 13.4655H10.3308L10.3576 13.4387H10.3843L10.4109 13.412H10.4377L10.4644 13.3853H10.491H10.5178L10.5445 13.3586H10.5712H10.5979H10.6513H10.678V13.3586Z" fill="#FFF9C9"/>
<path fill-rule="evenodd" clip-rule="evenodd" d="M8.80872 13.5989C9.04904 13.5989 9.23596 13.7591 9.23596 13.9727C9.26266 14.1863 9.07572 14.3732 8.8354 14.3732C8.59508 14.3732 8.38147 14.213 8.38147 13.9994C8.38147 13.7858 8.5684 13.5989 8.80872 13.5989Z" fill="#FFF9C9"/>
<path d="M9.28941 13.9728H9.2093V13.9461H9.18262V13.9194V13.8927V13.8659L9.15589 13.8393V13.8126H9.1292V13.7858L9.10251 13.7591L9.07578 13.7324H9.0491V13.7057H9.02241H8.99568V13.679H8.96899H8.94231L8.91558 13.6523H8.88889H8.8622H8.83547H8.80879V13.5455H8.83547H8.8622H8.88889L8.91558 13.5722H8.94231H8.96899H8.99568H9.02241V13.5989H9.0491L9.07578 13.6256H9.10251L9.1292 13.6523L9.15589 13.679L9.18262 13.7057L9.2093 13.7324L9.23603 13.7591V13.7858H9.26272V13.8126V13.8393L9.28941 13.8659V13.8927V13.9194V13.9461V13.9728V13.9728ZM8.83547 14.4267L8.80879 14.3199H8.83547H8.8622H8.88889H8.91558L8.94231 14.2932H8.96899H8.99568V14.2665H9.02241V14.2398H9.0491H9.07578L9.10251 14.2131V14.1864H9.1292V14.1597H9.15589V14.133V14.1063H9.18262V14.0796V14.0529V14.0262L9.2093 13.9995V13.9728H9.28941V13.9995V14.0262V14.0529V14.0796V14.1063L9.26272 14.133V14.1597L9.23603 14.1864L9.2093 14.2131V14.2398L9.18262 14.2665L9.15589 14.2932L9.1292 14.3199H9.10251V14.3466H9.07578L9.0491 14.3733H9.02241L8.99568 14.4H8.96899H8.94231H8.91558L8.88889 14.4267H8.8622H8.83547V14.4267ZM8.32812 13.9995H8.43496V14.0262V14.0529V14.0796H8.46164V14.1063V14.133L8.48833 14.1597L8.51506 14.1864V14.2131H8.54175V14.2398H8.56848L8.59516 14.2665L8.62185 14.2932H8.64858H8.67527L8.70195 14.3199H8.72868H8.75537H8.78206H8.80879L8.83547 14.4267H8.80879H8.78206H8.75537H8.72868H8.70195L8.67527 14.4H8.64858H8.62185L8.59516 14.3733H8.56848L8.54175 14.3466H8.51506V14.3199H8.48833L8.46164 14.2932V14.2665H8.43496L8.40823 14.2398V14.2131L8.38154 14.1864L8.35485 14.1597V14.133V14.1063V14.0796H8.32812V14.0529V14.0262V13.9995V13.9995ZM8.80879 13.5455V13.6523H8.78206H8.75537H8.72868L8.70195 13.679H8.67527H8.64858L8.62185 13.7057H8.59516L8.56848 13.7324L8.54175 13.7591L8.51506 13.7858V13.8126H8.48833V13.8393L8.46164 13.8659V13.8927L8.43496 13.9194V13.9461V13.9728V13.9995H8.32812V13.9728V13.9461V13.9194L8.35485 13.8927V13.8659V13.8393L8.38154 13.8126V13.7858H8.40823V13.7591L8.43496 13.7324L8.46164 13.7057V13.679H8.48833L8.51506 13.6523L8.54175 13.6256H8.56848V13.5989H8.59516H8.62185L8.64858 13.5722H8.67527H8.70195L8.72868 13.5455H8.75537H8.78206H8.80879V13.5455Z" fill="#FFF9C9"/>
<path fill-rule="evenodd" clip-rule="evenodd" d="M25.391 13.3585C26.0052 13.5454 25.7648 14.48 25.0706 14.7737C24.1894 15.1208 23.602 14.7203 23.6287 14.3465C23.6287 14.1061 24.0559 13.9192 24.3229 13.759C24.7769 13.492 24.9638 13.2517 25.391 13.3585Z" fill="#DEC400"/>
<path fill-rule="evenodd" clip-rule="evenodd" d="M30.7848 14.1064C30.8382 14.0797 30.9984 13.786 30.8115 13.4656C30.6245 13.1718 30.4911 12.6378 30.1706 12.4776C29.7701 12.3174 29.0758 12.3975 28.9957 12.8781C28.969 13.1184 29.0491 13.3053 29.1826 13.5457C29.3428 13.8394 29.5297 14.1598 29.8502 14.2933C30.1706 14.4268 30.0905 14.2933 30.4109 14.2666C30.491 14.2666 30.7047 14.1865 30.7848 14.1064V14.1064Z" fill="#FFE908"/>
<path fill-rule="evenodd" clip-rule="evenodd" d="M29.3429 12.5308C29.1826 12.4774 29.0224 12.7177 28.9957 12.8779C28.969 13.1182 29.0491 13.3052 29.1826 13.5455C29.3428 13.8392 29.5297 14.1596 29.8502 14.2931C30.1706 14.4267 30.1439 14.4801 30.4109 14.2664C31.1853 13.7858 29.8235 12.691 29.3429 12.5308V12.5308Z" fill="#DEC400"/>
<path fill-rule="evenodd" clip-rule="evenodd" d="M26.8597 13.7057C26.9398 13.7057 27.4739 12.7711 26.7262 12.3706C26.4325 12.2104 25.845 12.2905 25.6848 12.5842C25.6047 12.7444 25.4712 13.3586 25.6047 13.4921C25.7649 13.6256 25.6848 13.5722 26.0053 13.7057C26.2189 13.8392 26.6461 13.8926 26.8597 13.7057Z" fill="#FFE908"/>
<path fill-rule="evenodd" clip-rule="evenodd" d="M26.1387 13.0114C26.1922 12.958 27.0466 12.5575 26.7262 12.3706C26.4325 12.1837 25.845 12.2905 25.6848 12.5842C25.6047 12.7444 25.4712 13.3586 25.6047 13.4921C25.7649 13.6256 25.6848 13.5722 26.0053 13.7057C26.2189 13.8392 25.9251 13.1716 26.1387 13.0114V13.0114Z" fill="#DEC400"/>
<path fill-rule="evenodd" clip-rule="evenodd" d="M29.1562 14.2396C29.2897 14.1061 29.3164 13.759 29.2363 13.5721C29.0227 12.9846 28.9159 12.5841 28.2216 12.5841C27.9546 12.5841 27.7143 12.7176 27.5808 12.9312C27.5007 13.038 27.5007 13.3051 27.5541 13.4386C27.6075 13.5721 27.6609 13.7323 27.741 13.8658C27.8211 14.026 27.8478 14.1862 28.0347 14.2396C28.4619 14.3731 28.6755 14.1595 29.1562 14.2396V14.2396Z" fill="#FFE908"/>
<path fill-rule="evenodd" clip-rule="evenodd" d="M29.1562 14.2396C29.2897 14.1061 28.2216 13.8391 28.1682 13.6522C27.9546 13.0648 28.9159 12.5841 28.2216 12.5841C27.9546 12.5841 27.7143 12.7176 27.5808 12.9312C27.5007 13.038 27.5007 13.3051 27.5541 13.4386C27.6075 13.5721 27.6609 13.7323 27.741 13.8658C27.8211 14.026 27.8478 14.1862 28.0347 14.2396C28.4619 14.3731 28.6755 14.1595 29.1562 14.2396V14.2396Z" fill="#DEC400"/>
<path d="M26.1751 13.9945C25.8281 13.9381 25.5795 13.691 25.6199 13.4428C25.6603 13.1945 25.9743 13.039 26.3213 13.0954C26.6683 13.1518 26.9169 13.3988 26.8765 13.6471C26.8361 13.8954 26.5221 14.0509 26.1751 13.9945Z" fill="#FFF9C9" stroke="#FFF9C9" stroke-width="0.000279957" stroke-miterlimit="22.9256"/>
<path fill-rule="evenodd" clip-rule="evenodd" d="M28.5952 13.5187C28.248 13.5187 27.9276 13.759 27.9276 14.0527C27.9276 14.3731 28.2213 14.6135 28.5684 14.6402C28.9423 14.6402 29.2627 14.3999 29.2627 14.1061C29.2627 13.7857 28.969 13.5454 28.5952 13.5187Z" fill="#FFF9C9"/>
<path d="M27.8743 14.0528V14.0261V13.9994V13.946L27.901 13.9193V13.8926V13.8658L27.9277 13.8392V13.8125L27.9544 13.7857L27.9811 13.759V13.7324L28.0078 13.7056L28.0345 13.6789H28.0612V13.6522L28.0879 13.6255L28.1146 13.5988H28.1413L28.168 13.5721H28.1947L28.2481 13.5454L28.2748 13.5187H28.3015H28.3282L28.3549 13.492H28.4083H28.435L28.4617 13.4653H28.4884H28.5418H28.5685H28.6219L28.5952 13.5721H28.5685H28.5418H28.5151H28.4884H28.4617L28.4083 13.5988H28.3816H28.3549L28.3282 13.6255H28.3015H28.2748L28.2481 13.6522H28.2214L28.1947 13.6789L28.168 13.7056L28.1413 13.7324H28.1146V13.759L28.0879 13.7857L28.0612 13.8125L28.0345 13.8392V13.8658L28.0078 13.8926V13.9193L27.9811 13.946V13.9727V13.9994V14.0261V14.0528H27.8743V14.0528ZM28.5685 14.6936H28.5418L28.5151 14.6669H28.4617H28.435H28.4083L28.3549 14.6402H28.3282H28.3015L28.2748 14.6135L28.2481 14.5868H28.2214L28.168 14.5601H28.1413V14.5334L28.0879 14.5067V14.48H28.0612L28.0345 14.4533L28.0078 14.4266L27.9811 14.3999V14.3732L27.9544 14.3465L27.9277 14.3198V14.2931L27.901 14.2664V14.2397V14.213L27.8743 14.1863V14.1329V14.1062V14.0795V14.0528H27.9811V14.0795V14.1062V14.1329V14.1596V14.1863L28.0078 14.213V14.2397L28.0345 14.2664V14.2931L28.0612 14.3198V14.3465L28.0879 14.3732H28.1146V14.3999L28.1413 14.4266H28.168L28.1947 14.4533L28.2214 14.48H28.2481V14.5067H28.2748L28.3015 14.5334H28.3282H28.3816L28.4083 14.5601H28.435H28.4617L28.4884 14.5868H28.5151H28.5418H28.5952L28.5685 14.6936V14.6936ZM29.3162 14.1062V14.1329V14.1596V14.1863L29.2895 14.213V14.2664V14.2931L29.2628 14.3198V14.3465L29.2361 14.3732L29.2094 14.3999V14.4266H29.1827L29.156 14.4533L29.1293 14.48V14.5067L29.1025 14.5334H29.0759L29.0492 14.5601L29.0224 14.5868H28.9691L28.9423 14.6135H28.9157L28.889 14.6402H28.8622L28.8356 14.6669H28.7821H28.7554H28.7287L28.702 14.6936H28.6486H28.6219H28.5685L28.5952 14.5868H28.6219H28.6486H28.6753H28.702L28.7287 14.5601H28.7821H28.8088H28.8356L28.8622 14.5334H28.889L28.9157 14.5067H28.9423L28.9691 14.48H28.9958V14.4533H29.0224L29.0492 14.4266L29.0759 14.3999H29.1025V14.3732L29.1293 14.3465L29.156 14.3198V14.2931L29.1827 14.2664V14.2397V14.213L29.2094 14.1863V14.1596V14.1329V14.1062H29.3162V14.1062ZM28.6219 13.4653H28.6486H28.6753L28.7287 13.492H28.7554H28.7821L28.8356 13.5187H28.8622H28.889L28.9157 13.5454H28.9423L28.9691 13.5721L29.0224 13.5988H29.0492L29.0759 13.6255L29.1025 13.6522L29.1293 13.6789L29.156 13.7056L29.1827 13.7324L29.2094 13.759V13.7857L29.2361 13.8125L29.2628 13.8392V13.8658L29.2895 13.8926V13.9193V13.946L29.3162 13.9727V13.9994V14.0261V14.0795V14.1062H29.2094V14.0795V14.0528V14.0261V13.9994V13.9727L29.1827 13.946V13.9193V13.8926H29.156V13.8658L29.1293 13.8392V13.8125L29.1025 13.7857H29.0759V13.759L29.0492 13.7324H29.0224L28.9958 13.7056L28.9691 13.6789H28.9423V13.6522H28.9157L28.889 13.6255H28.8622L28.8356 13.5988H28.7821H28.7554H28.7287L28.702 13.5721H28.6753H28.6486H28.5952L28.6219 13.4653Z" fill="#FFF9C9"/>
<path fill-rule="evenodd" clip-rule="evenodd" d="M30.2507 13.4385C29.957 13.4385 29.69 13.6254 29.69 13.8925C29.6633 14.1595 29.9303 14.3998 30.2507 14.3998C30.5444 14.4265 30.8115 14.2129 30.8382 13.9459C30.8382 13.6789 30.5711 13.4385 30.2507 13.4385Z" fill="#FFF9C9"/>
<path d="M29.6367 13.8925V13.8658V13.8391V13.8124V13.7857L29.6634 13.759V13.7323V13.7056L29.6901 13.6789L29.7168 13.6522V13.6255L29.7435 13.5988L29.7702 13.5721L29.7969 13.5454L29.8236 13.5187H29.8503L29.877 13.492H29.9037L29.9304 13.4653L29.9838 13.4386L30.0372 13.4119H30.0639H30.0907H30.1173L30.144 13.3852H30.1708H30.1974H30.2242H30.2775L30.2509 13.492H30.2242H30.1974H30.1708H30.144L30.0907 13.5187H30.0639H30.0372L30.0105 13.5454H29.9838L29.9571 13.5721H29.9304L29.9037 13.5988H29.877V13.6255H29.8503V13.6522L29.8236 13.6789H29.7969V13.7056V13.7323H29.7702V13.759L29.7435 13.7857V13.8124V13.8391V13.8658L29.7168 13.8925H29.6367V13.8925ZM30.2509 14.4533H30.2242H30.1974H30.1708H30.144H30.1173L30.0907 14.4266H30.0639H30.0372L30.0105 14.3999H29.9838L29.9571 14.3732H29.9304L29.9037 14.3465H29.877L29.8503 14.3198H29.8236L29.7969 14.2931V14.2664L29.7702 14.2397H29.7435V14.213L29.7168 14.1863L29.6901 14.1596V14.1329L29.6634 14.1062V14.0795V14.0527L29.6367 14.0261V13.9994V13.9726V13.9193V13.8925H29.7168V13.9193L29.7435 13.946V13.9726V13.9994V14.0261V14.0527L29.7702 14.0795L29.7969 14.1062V14.1329L29.8236 14.1596L29.8503 14.1863L29.877 14.213L29.9037 14.2397L29.9304 14.2664H29.9571V14.2931H29.9838H30.0105L30.0372 14.3198H30.0639H30.0907L30.1173 14.3465H30.144H30.1708H30.1974H30.2242H30.2509V14.4533V14.4533ZM30.865 13.946V13.9726V13.9994V14.0261V14.0527L30.8383 14.0795V14.1062V14.1329L30.8116 14.1596V14.1863H30.7849V14.213L30.7582 14.2397L30.7315 14.2664V14.2931H30.7048L30.6781 14.3198L30.6514 14.3465H30.6247L30.598 14.3732L30.5446 14.3999L30.5179 14.4266H30.4912H30.4645L30.4111 14.4533H30.3844H30.3577H30.331H30.3043H30.2775H30.2509V14.3465H30.2775H30.3043H30.331H30.3577H30.3844H30.4111L30.4378 14.3198H30.4645H30.4912L30.5179 14.2931H30.5446L30.5713 14.2664L30.598 14.2397H30.6247V14.213H30.6514L30.6781 14.1863L30.7048 14.1596V14.1329H30.7315V14.1062V14.0795H30.7582V14.0527V14.0261V13.9994L30.7849 13.9726V13.946H30.865V13.946ZM30.2775 13.3852H30.2509H30.3043H30.331L30.3577 13.4119H30.3844H30.4378L30.4912 13.4386H30.5179H30.5446V13.4653H30.598V13.492L30.6247 13.5187H30.6514L30.6781 13.5454L30.7048 13.5721H30.7315V13.5988L30.7582 13.6255L30.7849 13.6522L30.8116 13.6789V13.7056L30.8383 13.7323V13.759V13.7857L30.865 13.8124V13.8391V13.8658V13.8925V13.9193V13.946H30.7849V13.9193V13.8925L30.7582 13.8658V13.8391V13.8124V13.7857H30.7315V13.759V13.7323H30.7048V13.7056L30.6781 13.6789L30.6514 13.6522L30.6247 13.6255L30.598 13.5988H30.5713L30.5446 13.5721L30.5179 13.5454H30.4912H30.4645L30.4378 13.5187H30.4111H30.3844L30.331 13.492H30.3043H30.2775H30.2509L30.2775 13.3852V13.3852Z" fill="#FFF9C9"/>
<path fill-rule="evenodd" clip-rule="evenodd" d="M32.2534 13.4387C32.3602 13.2518 32.1199 13.0916 31.9864 12.9848C31.9063 12.9047 31.5324 12.6644 31.3989 12.6377C31.2387 12.5843 30.8649 12.611 30.7848 12.7712C30.6513 13.0115 30.7848 13.3586 30.9984 13.5188C31.3188 13.7859 31.7727 14.2398 32.1466 13.7058C32.1733 13.6524 32.2801 13.3586 32.2534 13.4387V13.4387Z" fill="#FFE908"/>
<path fill-rule="evenodd" clip-rule="evenodd" d="M30.8381 12.7176C30.5978 12.8244 30.7313 13.3318 30.9983 13.5187C31.3187 13.7857 31.8527 14.293 32.1465 13.7056C32.1465 13.7056 31.3187 12.5574 30.8381 12.7176V12.7176Z" fill="#DEC400"/>
<path fill-rule="evenodd" clip-rule="evenodd" d="M31.9062 13.1716C31.6659 13.1448 31.4523 13.3051 31.4523 13.5187C31.4523 13.7323 31.6392 13.9192 31.8795 13.9192C32.1198 13.9459 32.3068 13.7857 32.3068 13.5721C32.3335 13.3585 32.1465 13.1716 31.9062 13.1716Z" fill="#FFF9C9"/>
<path d="M31.3989 13.5188V13.4921V13.4654L31.4257 13.4387V13.412V13.3852L31.4523 13.3586V13.3318H31.479V13.3051V13.2785H31.5058L31.5324 13.2517V13.225H31.5592L31.5859 13.1983L31.6125 13.1716H31.6393L31.666 13.1449H31.6927H31.7194V13.1182H31.7461H31.7728H31.7995H31.8262H31.8529H31.8796H31.9063L31.8796 13.1983H31.8529L31.8262 13.225H31.7995H31.7728H31.7461H31.7194V13.2517H31.6927H31.666V13.2785H31.6393L31.6125 13.3051L31.5859 13.3318L31.5592 13.3586V13.3852H31.5324V13.412V13.4387L31.5058 13.4654V13.4921V13.5188H31.3989V13.5188ZM31.8796 13.9727H31.8529H31.8262H31.7995H31.7728H31.7461V13.946H31.7194H31.6927H31.666L31.6393 13.9193L31.6125 13.8926H31.5859V13.8659H31.5592L31.5324 13.8392L31.5058 13.8125V13.7858H31.479V13.7591L31.4523 13.7324L31.4257 13.7057V13.679V13.6523L31.3989 13.6256V13.5989V13.5722V13.5455V13.5188H31.5058V13.5455V13.5722V13.5989L31.5324 13.6256V13.6523V13.679H31.5592V13.7057V13.7324H31.5859V13.7591H31.6125V13.7858H31.6393V13.8125H31.666H31.6927V13.8392H31.7194L31.7461 13.8659H31.7728H31.7995H31.8262L31.8529 13.8926H31.8796V13.9727V13.9727ZM32.3602 13.5722V13.5989V13.6256V13.6523V13.679H32.3335V13.7057V13.7324L32.3068 13.7591L32.2801 13.7858V13.8125H32.2534V13.8392H32.2267V13.8659L32.2 13.8926H32.1733V13.9193H32.1466H32.1199L32.0932 13.946H32.0665L32.0398 13.9727H32.0131H31.9864H31.9597H31.933H31.9063H31.8796V13.8926H31.9063L31.933 13.8659H31.9597H31.9864H32.0131H32.0398V13.8392H32.0665H32.0932L32.1199 13.8125L32.1466 13.7858H32.1733V13.7591H32.2V13.7324L32.2267 13.7057V13.679H32.2534V13.6523V13.6256V13.5989V13.5722H32.3602V13.5722ZM31.9063 13.1182H31.933H31.9597H31.9864H32.0131L32.0398 13.1449H32.0665H32.0932L32.1199 13.1716H32.1466L32.1733 13.1983L32.2 13.225H32.2267V13.2517H32.2534V13.2785L32.2801 13.3051L32.3068 13.3318V13.3586H32.3335V13.3852V13.412L32.3602 13.4387V13.4654V13.4921V13.5188V13.5455V13.5722H32.2534V13.5455V13.5188V13.4921V13.4654V13.4387L32.2267 13.412V13.3852L32.2 13.3586V13.3318H32.1733V13.3051H32.1466L32.1199 13.2785H32.0932L32.0665 13.2517H32.0398L32.0131 13.225H31.9864H31.9597H31.933L31.9063 13.1983H31.8796L31.9063 13.1182V13.1182Z" fill="#FFF9C9"/>
<path d="M18.0479 24.44H15.7782V26.7097H18.0479V24.44Z" fill="black"/>
<path d="M18.0479 21.9567H15.7782V24.2264H18.0479V21.9567Z" fill="black"/>
<path d="M18.0479 19.4734H15.7782V21.7431H18.0479V19.4734Z" fill="black"/>
<path d="M22.9342 24.44H20.6646V26.7097H22.9342V24.44Z" fill="black"/>
<path d="M25.4175 24.44H23.1478V26.7097H25.4175V24.44Z" fill="black"/>
<path d="M22.9342 21.9567H20.6646V24.2264H22.9342V21.9567Z" fill="black"/>
<path d="M22.9342 19.4734H20.6646V21.7431H22.9342V19.4734Z" fill="black"/>
<path d="M8.99571 28.659H8.06116V29.5936H8.99571V28.659Z" fill="black"/>
<path d="M10.0639 28.659H9.12927V29.5936H10.0639V28.659Z" fill="black"/>
<path d="M11.1052 28.659H10.1707V29.5936H11.1052V28.659Z" fill="black"/>
<path d="M8.99571 29.7004H8.06116V30.635H8.99571V29.7004Z" fill="black"/>
<path d="M8.99571 30.7685H8.06116V31.7031H8.99571V30.7685Z" fill="black"/>
<path d="M10.0639 30.7685H9.12927V31.7031H10.0639V30.7685Z" fill="black"/>
<path d="M11.1052 30.7685H10.1707V31.7031H11.1052V30.7685Z" fill="black"/>
<path d="M8.99571 31.8365H8.06116V32.7711H8.99571V31.8365Z" fill="black"/>
<path d="M8.99571 32.878H8.06116V33.8126H8.99571V32.878Z" fill="black"/>
<path d="M10.0639 32.878H9.12927V33.8126H10.0639V32.878Z" fill="black"/>
<path d="M11.1052 32.878H10.1707V33.8126H11.1052V32.878Z" fill="black"/>
<path d="M12.0666 29.7004H11.132V30.635H12.0666V29.7004Z" fill="black"/>
<path d="M12.0666 31.8365H11.132V32.7711H12.0666V31.8365Z" fill="black"/>
<path d="M13.8821 28.659H12.9475V29.5936H13.8821V28.659Z" fill="black"/>
<path d="M13.8821 29.7004H12.9475V30.635H13.8821V29.7004Z" fill="black"/>
<path d="M13.8821 30.7685H12.9475V31.7031H13.8821V30.7685Z" fill="black"/>
<path d="M13.8821 31.8365H12.9475V32.7711H13.8821V31.8365Z" fill="black"/>
<path d="M13.8821 32.878H12.9475V33.8126H13.8821V32.878Z" fill="black"/>
<path d="M14.9502 32.878H14.0156V33.8126H14.9502V32.878Z" fill="black"/>
<path d="M15.9916 32.878H15.057V33.8126H15.9916V32.878Z" fill="black"/>
<path d="M17.8342 29.7004H16.8997V30.635H17.8342V29.7004Z" fill="black"/>
<path d="M17.8342 30.7685H16.8997V31.7031H17.8342V30.7685Z" fill="black"/>
<path d="M17.8342 31.8365H16.8997V32.7711H17.8342V31.8365Z" fill="black"/>
<path d="M17.8502 28.6555L17.8502 29.6017L18.7964 29.6017L18.7964 28.6555L17.8502 28.6555Z" fill="black"/>
<path d="M18.9076 28.6555L18.9076 29.6017L19.8538 29.6017L19.8538 28.6555L18.9076 28.6555Z" fill="black"/>
<path d="M17.8502 32.8812L17.8502 33.8275L18.7964 33.8275L18.7964 32.8812L17.8502 32.8812Z" fill="black"/>
<path d="M18.9076 32.8812L18.9076 33.8275L19.8538 33.8275L19.8538 32.8812L18.9076 32.8812Z" fill="black"/>
<path d="M20.7982 29.7004H19.8636V30.635H20.7982V29.7004Z" fill="black"/>
<path d="M20.7982 30.7685H19.8636V31.7031H20.7982V30.7685Z" fill="black"/>
<path d="M20.7982 31.8365H19.8636V32.7711H20.7982V31.8365Z" fill="black"/>
<path d="M22.6138 29.7004H21.6792V30.635H22.6138V29.7004Z" fill="black"/>
<path d="M22.6138 30.7685H21.6792V31.7031H22.6138V30.7685Z" fill="black"/>
<path d="M22.6138 31.8365H21.6792V32.7711H22.6138V31.8365Z" fill="black"/>
<path d="M22.6354 28.6555L22.6354 29.6017L23.5816 29.6017L23.5816 28.6555L22.6354 28.6555Z" fill="black"/>
<path d="M23.6926 28.6555L23.6926 29.6017L24.6388 29.6017L24.6388 28.6555L23.6926 28.6555Z" fill="black"/>
<path d="M22.6354 32.8812L22.6354 33.8275L23.5816 33.8275L23.5816 32.8812L22.6354 32.8812Z" fill="black"/>
<path d="M23.6926 32.8812L23.6926 33.8275L24.6388 33.8275L24.6388 32.8812L23.6926 32.8812Z" fill="black"/>
<path d="M26.4591 28.659H25.5245V29.5936H26.4591V28.659Z" fill="black"/>
<path d="M26.4591 29.7004H25.5245V30.635H26.4591V29.7004Z" fill="black"/>
<path d="M26.4591 30.7685H25.5245V31.7031H26.4591V30.7685Z" fill="black"/>
<path d="M27.5268 30.7685H26.5923V31.7031H27.5268V30.7685Z" fill="black"/>
<path d="M26.4591 31.8365H25.5245V32.7711H26.4591V31.8365Z" fill="black"/>
<path d="M26.4591 32.878H25.5245V33.8126H26.4591V32.878Z" fill="black"/>
<path d="M28.4617 31.8365H27.5271V32.7711H28.4617V31.8365Z" fill="black"/>
<path d="M29.3962 32.878H28.4617V33.8126H29.3962V32.878Z" fill="black"/>
<path d="M28.4617 29.6736H27.5271V30.6082H28.4617V29.6736Z" fill="black"/>
<path d="M29.423 28.659H28.4884V29.5936H29.423V28.659Z" fill="black"/>
<path d="M31.3722 32.878H30.4376V33.8126H31.3722V32.878Z" fill="black"/>
<path d="M32.4403 32.878H31.5057V33.8126H32.4403V32.878Z" fill="black"/>
<path d="M33.4817 32.878H32.5471V33.8126H33.4817V32.878Z" fill="black"/>
<path d="M34.443 31.8365H33.5084V32.7711H34.443V31.8365Z" fill="black"/>
<path d="M32.4403 30.7418H31.5057V31.6764H32.4403V30.7418Z" fill="black"/>
<path d="M33.4817 30.7418H32.5471V31.6764H33.4817V30.7418Z" fill="black"/>
<path d="M31.4791 29.7004H30.5446V30.635H31.4791V29.7004Z" fill="black"/>
<path d="M32.4403 28.659H31.5057V29.5936H32.4403V28.659Z" fill="black"/>
<path d="M33.5082 28.659H32.5736V29.5936H33.5082V28.659Z" fill="black"/>
<path d="M34.5496 28.659H33.615V29.5936H34.5496V28.659Z" fill="black"/>
<defs>
<linearGradient id="paint0_linear_78_932" x1="11.6662" y1="10.0207" x2="16.3123" y2="10.0207" gradientUnits="userSpaceOnUse">
<stop stop-color="#2B2A29" stop-opacity="0"/>
<stop offset="0.34902" stop-color="#161515" stop-opacity="0.501961"/>
<stop offset="1"/>
</linearGradient>
</defs>
</svg>
